<svg xmlns="http://www.w3.org/2000/svg" style="display: none;">
    <!-- WEGROW Logo -->
    <symbol id="logo-we-grow" viewBox="0 0 100 100">
        <circle cx="50" cy="50" r="45" fill="#22942c" fill-opacity="0.1"/>
        <path d="M50 10 L55 35 L80 35 L60 50 L68 75 L50 60 L32 75 L40 50 L20 35 L45 35 Z" fill="#22942c"/>
        <path d="M50 25 C36.2 25 25 36.2 25 50 C25 63.8 36.2 75 50 75 C63.8 75 75 63.8 75 50" stroke="#a7d84d" stroke-width="4" stroke-linecap="round" fill="none"/>
        <circle cx="50" cy="50" r="8" fill="#a7d84d"/>
    </symbol>

    <!-- Search Icon -->
    <symbol id="icon-search" viewBox="0 0 24 24" fill="none" stroke="currentColor" stroke-width="2" stroke-linecap="round" stroke-linejoin="round">
        <circle cx="11" cy="11" r="8"/>
        <line x1="21" y1="21" x2="16.65" y2="16.65"/>
    </symbol>

    <!-- Monitor/Desktop Icon -->
    <symbol id="icon-monitor" viewBox="0 0 24 24" fill="none" stroke="currentColor" stroke-width="2" stroke-linecap="round" stroke-linejoin="round">
        <rect x="2" y="3" width="20" height="14" rx="2" ry="2"/>
        <line x1="8" y1="21" x2="16" y2="21"/>
        <line x1="12" y1="17" x2="12" y2="21"/>
    </symbol>

    <!-- Chart/Analytics Icon -->
    <symbol id="icon-chart" viewBox="0 0 24 24" fill="none" stroke="currentColor" stroke-width="2" stroke-linecap="round" stroke-linejoin="round">
        <line x1="18" y1="20" x2="18" y2="10"/>
        <line x1="12" y1="20" x2="12" y2="4"/>
        <line x1="6" y1="20" x2="6" y2="14"/>
    </symbol>

    <!-- Users/Team Icon -->
    <symbol id="icon-users" viewBox="0 0 24 24" fill="none" stroke="currentColor" stroke-width="2" stroke-linecap="round" stroke-linejoin="round">
        <path d="M17 21v-2a4 4 0 0 0-4-4H5a4 4 0 0 0-4 4v2"/>
        <circle cx="9" cy="7" r="4"/>
        <path d="M23 21v-2a4 4 0 0 0-3-3.87"/>
        <path d="M16 3.13a4 4 0 0 1 0 7.75"/>
    </symbol>

    <!-- Email Icon -->
    <symbol id="icon-mail" viewBox="0 0 24 24" fill="none" stroke="currentColor" stroke-width="2" stroke-linecap="round" stroke-linejoin="round">
        <path d="M4 4h16c1.1 0 2 .9 2 2v12c0 1.1-.9 2-2 2H4c-1.1 0-2-.9-2-2V6c0-1.1.9-2 2-2z"/>
        <polyline points="22,6 12,13 2,6"/>
    </symbol>

    <!-- Globe Icon -->
    <symbol id="icon-globe" viewBox="0 0 24 24" fill="none" stroke="currentColor" stroke-width="2" stroke-linecap="round" stroke-linejoin="round">
        <circle cx="12" cy="12" r="10"/>
        <line x1="2" y1="12" x2="22" y2="12"/>
        <path d="M12 2a15.3 15.3 0 0 1 4 10 15.3 15.3 0 0 1-4 10 15.3 15.3 0 0 1-4-10 15.3 15.3 0 0 1 4-10z"/>
    </symbol>

    <!-- Star Icon -->
    <symbol id="icon-star" viewBox="0 0 24 24" fill="none" stroke="currentColor" stroke-width="2" stroke-linecap="round" stroke-linejoin="round">
        <polygon points="12 2 15.09 8.26 22 9.27 17 14.14 18.18 21.02 12 17.77 5.82 21.02 7 14.14 2 9.27 8.91 8.26 12 2"/>
    </symbol>

    <!-- Play Icon -->
    <symbol id="icon-play" viewBox="0 0 24 24" fill="none" stroke="currentColor" stroke-width="2" stroke-linecap="round" stroke-linejoin="round">
        <polygon points="5 3 19 12 5 21 5 3"/>
    </symbol>

    <!-- Layers Icon -->
    <symbol id="icon-layers" viewBox="0 0 24 24" fill="none" stroke="currentColor" stroke-width="2" stroke-linecap="round" stroke-linejoin="round">
        <polygon points="12 2 2 7 12 12 22 7 12 2"/>
        <polyline points="2 17 12 22 22 17"/>
        <polyline points="2 12 12 17 22 12"/>
    </symbol>

    <!-- Menu/Hamburger Icon -->
    <symbol id="icon-menu" viewBox="0 0 24 24" fill="none" stroke="currentColor" stroke-width="2" stroke-linecap="round" stroke-linejoin="round">
        <line x1="3" y1="12" x2="21" y2="12"/>
        <line x1="3" y1="6" x2="21" y2="6"/>
        <line x1="3" y1="18" x2="21" y2="18"/>
    </symbol>

    <!-- Close/X Icon -->
    <symbol id="icon-close" viewBox="0 0 24 24" fill="none" stroke="currentColor" stroke-width="2" stroke-linecap="round" stroke-linejoin="round">
        <line x1="18" y1="6" x2="6" y2="18"/>
        <line x1="6" y1="6" x2="18" y2="18"/>
    </symbol>

    <!-- Check Icon -->
    <symbol id="icon-check" viewBox="0 0 24 24" fill="none" stroke="currentColor" stroke-width="2" stroke-linecap="round" stroke-linejoin="round">
        <polyline points="20 6 9 17 4 12"/>
    </symbol>

    <!-- Phone Icon -->
    <symbol id="icon-phone" viewBox="0 0 24 24" fill="none" stroke="currentColor" stroke-width="2" stroke-linecap="round" stroke-linejoin="round">
        <path d="M22 16.92v3a2 2 0 0 1-2.18 2 19.79 19.79 0 0 1-8.63-3.07 19.5 19.5 0 0 1-6-6 19.79 19.79 0 0 1-3.07-8.67A2 2 0 0 1 4.11 2h3a2 2 0 0 1 2 1.72 12.84 12.84 0 0 0 .7 2.81 2 2 0 0 1-.45 2.11L8.09 9.91a16 16 0 0 0 6 6l1.27-1.27a2 2 0 0 1 2.11-.45 12.84 12.84 0 0 0 2.81.7A2 2 0 0 1 22 16.92z"/>
    </symbol>

    <!-- Map Pin Icon -->
    <symbol id="icon-map-pin" viewBox="0 0 24 24" fill="none" stroke="currentColor" stroke-width="2" stroke-linecap="round" stroke-linejoin="round">
        <path d="M21 10c0 7-9 13-9 13s-9-6-9-13a9 9 0 0 1 18 0z"/>
        <circle cx="12" cy="10" r="3"/>
    </symbol>

    <!-- Arrow Up Icon -->
    <symbol id="icon-arrow-up" viewBox="0 0 24 24" fill="none" stroke="currentColor" stroke-width="2" stroke-linecap="round" stroke-linejoin="round">
        <line x1="12" y1="19" x2="12" y2="5"/>
        <polyline points="5 12 12 5 19 12"/>
    </symbol>

    <!-- External Link Icon -->
    <symbol id="icon-external" viewBox="0 0 24 24" fill="none" stroke="currentColor" stroke-width="2" stroke-linecap="round" stroke-linejoin="round">
        <path d="M18 13v6a2 2 0 0 1-2 2H5a2 2 0 0 1-2-2V8a2 2 0 0 1 2-2h6"/>
        <polyline points="15 3 21 3 21 9"/>
        <line x1="10" y1="14" x2="21" y2="3"/>
    </symbol>
</svg>
